<mxfile host="app.diagrams.net" agent="Mozilla/5.0 (Windows NT 10.0; Win64; x64) AppleWebKit/537.36 (KHTML, like Gecko) Chrome/128.0.0.0 Safari/537.36" version="24.7.16">
  <diagram name="Page-1" id="Y8_aOHyouAovwZR12a9M">
    <mxGraphModel dx="3149" dy="1953" grid="1" gridSize="10" guides="1" tooltips="1" connect="1" arrows="1" fold="1" page="1" pageScale="1" pageWidth="1100" pageHeight="850" math="0" shadow="0">
      <root>
        <mxCell id="0" />
        <mxCell id="1" parent="0" />
        <mxCell id="DXj9ZtCEaBtlAzCnvvc7-2" value="" style="rounded=0;whiteSpace=wrap;html=1;" vertex="1" parent="1">
          <mxGeometry x="-410" y="-90" width="1110" height="980" as="geometry" />
        </mxCell>
        <mxCell id="DXj9ZtCEaBtlAzCnvvc7-1" value="" style="shape=actor;whiteSpace=wrap;html=1;" vertex="1" parent="1">
          <mxGeometry x="210" y="-210" width="40" height="60" as="geometry" />
        </mxCell>
        <mxCell id="DXj9ZtCEaBtlAzCnvvc7-148" style="edgeStyle=orthogonalEdgeStyle;rounded=0;orthogonalLoop=1;jettySize=auto;html=1;exitX=1;exitY=0.25;exitDx=0;exitDy=0;entryX=0;entryY=0.5;entryDx=0;entryDy=0;" edge="1" parent="1" source="DXj9ZtCEaBtlAzCnvvc7-5" target="DXj9ZtCEaBtlAzCnvvc7-147">
          <mxGeometry relative="1" as="geometry">
            <Array as="points">
              <mxPoint x="340" y="154" />
              <mxPoint x="340" y="-27" />
            </Array>
          </mxGeometry>
        </mxCell>
        <mxCell id="DXj9ZtCEaBtlAzCnvvc7-5" value="Backend&lt;div&gt;System&lt;/div&gt;" style="shape=hexagon;perimeter=hexagonPerimeter2;whiteSpace=wrap;html=1;fixedSize=1;size=25;" vertex="1" parent="1">
          <mxGeometry x="182.5" y="130" width="95" height="80" as="geometry" />
        </mxCell>
        <mxCell id="DXj9ZtCEaBtlAzCnvvc7-62" style="edgeStyle=orthogonalEdgeStyle;rounded=0;orthogonalLoop=1;jettySize=auto;html=1;exitX=0.5;exitY=0;exitDx=0;exitDy=0;entryX=0;entryY=0.5;entryDx=0;entryDy=0;" edge="1" parent="1" source="DXj9ZtCEaBtlAzCnvvc7-6" target="DXj9ZtCEaBtlAzCnvvc7-60">
          <mxGeometry relative="1" as="geometry" />
        </mxCell>
        <mxCell id="DXj9ZtCEaBtlAzCnvvc7-67" value="Post /crreate-brand" style="edgeLabel;html=1;align=center;verticalAlign=middle;resizable=0;points=[];" vertex="1" connectable="0" parent="DXj9ZtCEaBtlAzCnvvc7-62">
          <mxGeometry x="0.2074" y="-2" relative="1" as="geometry">
            <mxPoint as="offset" />
          </mxGeometry>
        </mxCell>
        <mxCell id="DXj9ZtCEaBtlAzCnvvc7-63" style="edgeStyle=orthogonalEdgeStyle;rounded=0;orthogonalLoop=1;jettySize=auto;html=1;exitX=0.75;exitY=0;exitDx=0;exitDy=0;entryX=0;entryY=0.5;entryDx=0;entryDy=0;" edge="1" parent="1" source="DXj9ZtCEaBtlAzCnvvc7-6" target="DXj9ZtCEaBtlAzCnvvc7-56">
          <mxGeometry relative="1" as="geometry" />
        </mxCell>
        <mxCell id="DXj9ZtCEaBtlAzCnvvc7-68" value="Put /update-brand/:id" style="edgeLabel;html=1;align=center;verticalAlign=middle;resizable=0;points=[];" vertex="1" connectable="0" parent="DXj9ZtCEaBtlAzCnvvc7-63">
          <mxGeometry x="0.0889" y="4" relative="1" as="geometry">
            <mxPoint as="offset" />
          </mxGeometry>
        </mxCell>
        <mxCell id="DXj9ZtCEaBtlAzCnvvc7-64" style="edgeStyle=orthogonalEdgeStyle;rounded=0;orthogonalLoop=1;jettySize=auto;html=1;exitX=0.5;exitY=1;exitDx=0;exitDy=0;entryX=0;entryY=0.5;entryDx=0;entryDy=0;" edge="1" parent="1" source="DXj9ZtCEaBtlAzCnvvc7-6" target="DXj9ZtCEaBtlAzCnvvc7-59">
          <mxGeometry relative="1" as="geometry" />
        </mxCell>
        <mxCell id="DXj9ZtCEaBtlAzCnvvc7-71" value="Delete /delete-brand/:id" style="edgeLabel;html=1;align=center;verticalAlign=middle;resizable=0;points=[];" vertex="1" connectable="0" parent="DXj9ZtCEaBtlAzCnvvc7-64">
          <mxGeometry x="0.1538" y="1" relative="1" as="geometry">
            <mxPoint as="offset" />
          </mxGeometry>
        </mxCell>
        <mxCell id="DXj9ZtCEaBtlAzCnvvc7-65" style="edgeStyle=orthogonalEdgeStyle;rounded=0;orthogonalLoop=1;jettySize=auto;html=1;exitX=0.75;exitY=1;exitDx=0;exitDy=0;entryX=0;entryY=0.5;entryDx=0;entryDy=0;" edge="1" parent="1" source="DXj9ZtCEaBtlAzCnvvc7-6" target="DXj9ZtCEaBtlAzCnvvc7-58">
          <mxGeometry relative="1" as="geometry" />
        </mxCell>
        <mxCell id="DXj9ZtCEaBtlAzCnvvc7-70" value="Get /single-brand/:slug" style="edgeLabel;html=1;align=center;verticalAlign=middle;resizable=0;points=[];" vertex="1" connectable="0" parent="DXj9ZtCEaBtlAzCnvvc7-65">
          <mxGeometry x="-0.1111" y="-1" relative="1" as="geometry">
            <mxPoint as="offset" />
          </mxGeometry>
        </mxCell>
        <mxCell id="DXj9ZtCEaBtlAzCnvvc7-66" style="edgeStyle=orthogonalEdgeStyle;rounded=0;orthogonalLoop=1;jettySize=auto;html=1;exitX=1;exitY=0.5;exitDx=0;exitDy=0;entryX=0;entryY=0.5;entryDx=0;entryDy=0;" edge="1" parent="1" source="DXj9ZtCEaBtlAzCnvvc7-6" target="DXj9ZtCEaBtlAzCnvvc7-57">
          <mxGeometry relative="1" as="geometry" />
        </mxCell>
        <mxCell id="DXj9ZtCEaBtlAzCnvvc7-69" value="Get /all-brands" style="edgeLabel;html=1;align=center;verticalAlign=middle;resizable=0;points=[];" vertex="1" connectable="0" parent="DXj9ZtCEaBtlAzCnvvc7-66">
          <mxGeometry x="-0.2462" relative="1" as="geometry">
            <mxPoint as="offset" />
          </mxGeometry>
        </mxCell>
        <mxCell id="DXj9ZtCEaBtlAzCnvvc7-6" value="Category" style="rounded=1;whiteSpace=wrap;html=1;" vertex="1" parent="1">
          <mxGeometry x="330" y="535" width="120" height="60" as="geometry" />
        </mxCell>
        <mxCell id="DXj9ZtCEaBtlAzCnvvc7-42" style="edgeStyle=orthogonalEdgeStyle;rounded=0;orthogonalLoop=1;jettySize=auto;html=1;exitX=0.5;exitY=0;exitDx=0;exitDy=0;entryX=0;entryY=0.5;entryDx=0;entryDy=0;" edge="1" parent="1" source="DXj9ZtCEaBtlAzCnvvc7-7" target="DXj9ZtCEaBtlAzCnvvc7-39">
          <mxGeometry relative="1" as="geometry" />
        </mxCell>
        <mxCell id="DXj9ZtCEaBtlAzCnvvc7-49" value="&lt;font style=&quot;font-size: 14px;&quot;&gt;&amp;nbsp;Post /register&lt;/font&gt;" style="edgeLabel;html=1;align=center;verticalAlign=middle;resizable=0;points=[];" vertex="1" connectable="0" parent="DXj9ZtCEaBtlAzCnvvc7-42">
          <mxGeometry x="0.2554" relative="1" as="geometry">
            <mxPoint as="offset" />
          </mxGeometry>
        </mxCell>
        <mxCell id="DXj9ZtCEaBtlAzCnvvc7-43" style="edgeStyle=orthogonalEdgeStyle;rounded=0;orthogonalLoop=1;jettySize=auto;html=1;exitX=0.75;exitY=0;exitDx=0;exitDy=0;entryX=0;entryY=0.5;entryDx=0;entryDy=0;" edge="1" parent="1" source="DXj9ZtCEaBtlAzCnvvc7-7" target="DXj9ZtCEaBtlAzCnvvc7-35">
          <mxGeometry relative="1" as="geometry" />
        </mxCell>
        <mxCell id="DXj9ZtCEaBtlAzCnvvc7-50" value="&lt;span style=&quot;font-size: 14px;&quot;&gt;Post /login&lt;/span&gt;" style="edgeLabel;html=1;align=center;verticalAlign=middle;resizable=0;points=[];" vertex="1" connectable="0" parent="DXj9ZtCEaBtlAzCnvvc7-43">
          <mxGeometry x="0.0894" relative="1" as="geometry">
            <mxPoint as="offset" />
          </mxGeometry>
        </mxCell>
        <mxCell id="DXj9ZtCEaBtlAzCnvvc7-44" style="edgeStyle=orthogonalEdgeStyle;rounded=0;orthogonalLoop=1;jettySize=auto;html=1;exitX=1;exitY=0.25;exitDx=0;exitDy=0;entryX=0;entryY=0.5;entryDx=0;entryDy=0;" edge="1" parent="1" source="DXj9ZtCEaBtlAzCnvvc7-7" target="DXj9ZtCEaBtlAzCnvvc7-36">
          <mxGeometry relative="1" as="geometry" />
        </mxCell>
        <mxCell id="DXj9ZtCEaBtlAzCnvvc7-51" value="&lt;font style=&quot;font-size: 14px;&quot;&gt;Post&lt;/font&gt;&lt;div&gt;&lt;font style=&quot;font-size: 14px;&quot;&gt;/forgotpassword&lt;/font&gt;&lt;/div&gt;" style="edgeLabel;html=1;align=center;verticalAlign=middle;resizable=0;points=[];" vertex="1" connectable="0" parent="DXj9ZtCEaBtlAzCnvvc7-44">
          <mxGeometry x="-0.4824" y="2" relative="1" as="geometry">
            <mxPoint x="16" y="-33" as="offset" />
          </mxGeometry>
        </mxCell>
        <mxCell id="DXj9ZtCEaBtlAzCnvvc7-45" style="edgeStyle=orthogonalEdgeStyle;rounded=0;orthogonalLoop=1;jettySize=auto;html=1;exitX=1;exitY=0.75;exitDx=0;exitDy=0;" edge="1" parent="1" source="DXj9ZtCEaBtlAzCnvvc7-7" target="DXj9ZtCEaBtlAzCnvvc7-37">
          <mxGeometry relative="1" as="geometry" />
        </mxCell>
        <mxCell id="DXj9ZtCEaBtlAzCnvvc7-52" value="&lt;font style=&quot;font-size: 14px;&quot;&gt;Get&amp;nbsp;&lt;/font&gt;&lt;div&gt;&lt;font style=&quot;font-size: 14px;&quot;&gt;/userauth&lt;/font&gt;&lt;/div&gt;" style="edgeLabel;html=1;align=center;verticalAlign=middle;resizable=0;points=[];" vertex="1" connectable="0" parent="DXj9ZtCEaBtlAzCnvvc7-45">
          <mxGeometry x="-0.3867" y="-1" relative="1" as="geometry">
            <mxPoint as="offset" />
          </mxGeometry>
        </mxCell>
        <mxCell id="DXj9ZtCEaBtlAzCnvvc7-46" style="edgeStyle=orthogonalEdgeStyle;rounded=0;orthogonalLoop=1;jettySize=auto;html=1;exitX=0.75;exitY=1;exitDx=0;exitDy=0;entryX=0;entryY=0.75;entryDx=0;entryDy=0;" edge="1" parent="1" source="DXj9ZtCEaBtlAzCnvvc7-7" target="DXj9ZtCEaBtlAzCnvvc7-38">
          <mxGeometry relative="1" as="geometry" />
        </mxCell>
        <mxCell id="DXj9ZtCEaBtlAzCnvvc7-53" value="&lt;font style=&quot;font-size: 14px;&quot;&gt;Get /adminauth&lt;/font&gt;" style="edgeLabel;html=1;align=center;verticalAlign=middle;resizable=0;points=[];" vertex="1" connectable="0" parent="DXj9ZtCEaBtlAzCnvvc7-46">
          <mxGeometry x="-0.1507" y="-1" relative="1" as="geometry">
            <mxPoint x="1" y="1" as="offset" />
          </mxGeometry>
        </mxCell>
        <mxCell id="DXj9ZtCEaBtlAzCnvvc7-47" style="edgeStyle=orthogonalEdgeStyle;rounded=0;orthogonalLoop=1;jettySize=auto;html=1;exitX=0.5;exitY=1;exitDx=0;exitDy=0;entryX=0;entryY=0.5;entryDx=0;entryDy=0;" edge="1" parent="1" source="DXj9ZtCEaBtlAzCnvvc7-7" target="DXj9ZtCEaBtlAzCnvvc7-40">
          <mxGeometry relative="1" as="geometry" />
        </mxCell>
        <mxCell id="DXj9ZtCEaBtlAzCnvvc7-54" value="&lt;font style=&quot;font-size: 14px;&quot;&gt;Get /profile&lt;/font&gt;" style="edgeLabel;html=1;align=center;verticalAlign=middle;resizable=0;points=[];" vertex="1" connectable="0" parent="DXj9ZtCEaBtlAzCnvvc7-47">
          <mxGeometry x="0.0275" relative="1" as="geometry">
            <mxPoint as="offset" />
          </mxGeometry>
        </mxCell>
        <mxCell id="DXj9ZtCEaBtlAzCnvvc7-7" value="Authentication" style="rounded=1;whiteSpace=wrap;html=1;arcSize=15;" vertex="1" parent="1">
          <mxGeometry x="330" y="260" width="120" height="60" as="geometry" />
        </mxCell>
        <mxCell id="DXj9ZtCEaBtlAzCnvvc7-82" style="edgeStyle=orthogonalEdgeStyle;rounded=0;orthogonalLoop=1;jettySize=auto;html=1;exitX=0;exitY=0.5;exitDx=0;exitDy=0;entryX=0.5;entryY=0;entryDx=0;entryDy=0;" edge="1" parent="1" source="DXj9ZtCEaBtlAzCnvvc7-8" target="DXj9ZtCEaBtlAzCnvvc7-76">
          <mxGeometry relative="1" as="geometry" />
        </mxCell>
        <mxCell id="DXj9ZtCEaBtlAzCnvvc7-87" value="Post /create-category" style="edgeLabel;html=1;align=center;verticalAlign=middle;resizable=0;points=[];" vertex="1" connectable="0" parent="DXj9ZtCEaBtlAzCnvvc7-82">
          <mxGeometry x="0.7215" y="-1" relative="1" as="geometry">
            <mxPoint as="offset" />
          </mxGeometry>
        </mxCell>
        <mxCell id="DXj9ZtCEaBtlAzCnvvc7-83" style="edgeStyle=orthogonalEdgeStyle;rounded=0;orthogonalLoop=1;jettySize=auto;html=1;exitX=0;exitY=0.75;exitDx=0;exitDy=0;entryX=0.5;entryY=0;entryDx=0;entryDy=0;" edge="1" parent="1" source="DXj9ZtCEaBtlAzCnvvc7-8" target="DXj9ZtCEaBtlAzCnvvc7-72">
          <mxGeometry relative="1" as="geometry" />
        </mxCell>
        <mxCell id="DXj9ZtCEaBtlAzCnvvc7-88" value="Put /update-category/:id" style="edgeLabel;html=1;align=center;verticalAlign=middle;resizable=0;points=[];" vertex="1" connectable="0" parent="DXj9ZtCEaBtlAzCnvvc7-83">
          <mxGeometry x="0.5221" y="3" relative="1" as="geometry">
            <mxPoint as="offset" />
          </mxGeometry>
        </mxCell>
        <mxCell id="DXj9ZtCEaBtlAzCnvvc7-84" style="edgeStyle=orthogonalEdgeStyle;rounded=0;orthogonalLoop=1;jettySize=auto;html=1;exitX=0.5;exitY=1;exitDx=0;exitDy=0;" edge="1" parent="1" source="DXj9ZtCEaBtlAzCnvvc7-8" target="DXj9ZtCEaBtlAzCnvvc7-73">
          <mxGeometry relative="1" as="geometry" />
        </mxCell>
        <mxCell id="DXj9ZtCEaBtlAzCnvvc7-89" value="Get /all-categories" style="edgeLabel;html=1;align=center;verticalAlign=middle;resizable=0;points=[];" vertex="1" connectable="0" parent="DXj9ZtCEaBtlAzCnvvc7-84">
          <mxGeometry x="0.125" y="1" relative="1" as="geometry">
            <mxPoint as="offset" />
          </mxGeometry>
        </mxCell>
        <mxCell id="DXj9ZtCEaBtlAzCnvvc7-85" style="edgeStyle=orthogonalEdgeStyle;rounded=0;orthogonalLoop=1;jettySize=auto;html=1;exitX=1;exitY=0.5;exitDx=0;exitDy=0;entryX=0.5;entryY=0;entryDx=0;entryDy=0;" edge="1" parent="1" source="DXj9ZtCEaBtlAzCnvvc7-8" target="DXj9ZtCEaBtlAzCnvvc7-75">
          <mxGeometry relative="1" as="geometry" />
        </mxCell>
        <mxCell id="DXj9ZtCEaBtlAzCnvvc7-91" value="Delete /delete-category/:id" style="edgeLabel;html=1;align=center;verticalAlign=middle;resizable=0;points=[];" vertex="1" connectable="0" parent="DXj9ZtCEaBtlAzCnvvc7-85">
          <mxGeometry x="0.8147" y="-1" relative="1" as="geometry">
            <mxPoint as="offset" />
          </mxGeometry>
        </mxCell>
        <mxCell id="DXj9ZtCEaBtlAzCnvvc7-86" style="edgeStyle=orthogonalEdgeStyle;rounded=0;orthogonalLoop=1;jettySize=auto;html=1;exitX=1;exitY=0.75;exitDx=0;exitDy=0;" edge="1" parent="1" source="DXj9ZtCEaBtlAzCnvvc7-8" target="DXj9ZtCEaBtlAzCnvvc7-74">
          <mxGeometry relative="1" as="geometry" />
        </mxCell>
        <mxCell id="DXj9ZtCEaBtlAzCnvvc7-90" value="Get /single-category/:slug" style="edgeLabel;html=1;align=center;verticalAlign=middle;resizable=0;points=[];" vertex="1" connectable="0" parent="DXj9ZtCEaBtlAzCnvvc7-86">
          <mxGeometry x="0.7126" y="1" relative="1" as="geometry">
            <mxPoint y="1" as="offset" />
          </mxGeometry>
        </mxCell>
        <mxCell id="DXj9ZtCEaBtlAzCnvvc7-8" value="Brand" style="rounded=1;whiteSpace=wrap;html=1;" vertex="1" parent="1">
          <mxGeometry x="167.5" y="690" width="120" height="60" as="geometry" />
        </mxCell>
        <mxCell id="DXj9ZtCEaBtlAzCnvvc7-116" style="edgeStyle=orthogonalEdgeStyle;rounded=0;orthogonalLoop=1;jettySize=auto;html=1;exitX=0;exitY=0.75;exitDx=0;exitDy=0;entryX=1;entryY=0.25;entryDx=0;entryDy=0;" edge="1" parent="1" source="DXj9ZtCEaBtlAzCnvvc7-9">
          <mxGeometry relative="1" as="geometry">
            <mxPoint x="-22.5" y="292.5" as="sourcePoint" />
            <mxPoint x="-202.5" y="430" as="targetPoint" />
            <Array as="points">
              <mxPoint x="-132.5" y="275" />
              <mxPoint x="-132.5" y="410" />
              <mxPoint x="-202.5" y="410" />
            </Array>
          </mxGeometry>
        </mxCell>
        <mxCell id="DXj9ZtCEaBtlAzCnvvc7-131" value="/create-product" style="edgeLabel;html=1;align=center;verticalAlign=middle;resizable=0;points=[];" vertex="1" connectable="0" parent="DXj9ZtCEaBtlAzCnvvc7-116">
          <mxGeometry x="0.7493" y="1" relative="1" as="geometry">
            <mxPoint as="offset" />
          </mxGeometry>
        </mxCell>
        <mxCell id="DXj9ZtCEaBtlAzCnvvc7-118" style="edgeStyle=orthogonalEdgeStyle;rounded=0;orthogonalLoop=1;jettySize=auto;html=1;exitX=0;exitY=1;exitDx=0;exitDy=0;entryX=0.75;entryY=0;entryDx=0;entryDy=0;" edge="1" parent="1" source="DXj9ZtCEaBtlAzCnvvc7-9" target="DXj9ZtCEaBtlAzCnvvc7-108">
          <mxGeometry relative="1" as="geometry">
            <Array as="points">
              <mxPoint x="-117.5" y="290" />
            </Array>
          </mxGeometry>
        </mxCell>
        <mxCell id="DXj9ZtCEaBtlAzCnvvc7-139" value="Get /get-product-list/:page" style="edgeLabel;html=1;align=center;verticalAlign=middle;resizable=0;points=[];" vertex="1" connectable="0" parent="DXj9ZtCEaBtlAzCnvvc7-118">
          <mxGeometry x="0.7509" y="1" relative="1" as="geometry">
            <mxPoint y="9" as="offset" />
          </mxGeometry>
        </mxCell>
        <mxCell id="DXj9ZtCEaBtlAzCnvvc7-119" style="edgeStyle=orthogonalEdgeStyle;rounded=0;orthogonalLoop=1;jettySize=auto;html=1;exitX=0.25;exitY=1;exitDx=0;exitDy=0;entryX=0.5;entryY=0;entryDx=0;entryDy=0;" edge="1" parent="1" source="DXj9ZtCEaBtlAzCnvvc7-9" target="DXj9ZtCEaBtlAzCnvvc7-109">
          <mxGeometry relative="1" as="geometry" />
        </mxCell>
        <mxCell id="DXj9ZtCEaBtlAzCnvvc7-140" value="Get /search/:keyword" style="edgeLabel;html=1;align=center;verticalAlign=middle;resizable=0;points=[];" vertex="1" connectable="0" parent="DXj9ZtCEaBtlAzCnvvc7-119">
          <mxGeometry x="0.6526" y="1" relative="1" as="geometry">
            <mxPoint x="-1" y="-7" as="offset" />
          </mxGeometry>
        </mxCell>
        <mxCell id="DXj9ZtCEaBtlAzCnvvc7-120" style="edgeStyle=orthogonalEdgeStyle;rounded=0;orthogonalLoop=1;jettySize=auto;html=1;exitX=0.75;exitY=1;exitDx=0;exitDy=0;entryX=0.5;entryY=0;entryDx=0;entryDy=0;" edge="1" parent="1" source="DXj9ZtCEaBtlAzCnvvc7-9" target="DXj9ZtCEaBtlAzCnvvc7-110">
          <mxGeometry relative="1" as="geometry" />
        </mxCell>
        <mxCell id="DXj9ZtCEaBtlAzCnvvc7-141" value="Get /get-product-recommendation/:cid/:pid" style="edgeLabel;html=1;align=center;verticalAlign=middle;resizable=0;points=[];" vertex="1" connectable="0" parent="DXj9ZtCEaBtlAzCnvvc7-120">
          <mxGeometry x="0.687" y="4" relative="1" as="geometry">
            <mxPoint x="-4" y="-34" as="offset" />
          </mxGeometry>
        </mxCell>
        <mxCell id="DXj9ZtCEaBtlAzCnvvc7-121" style="edgeStyle=orthogonalEdgeStyle;rounded=0;orthogonalLoop=1;jettySize=auto;html=1;exitX=0.75;exitY=0;exitDx=0;exitDy=0;entryX=0.5;entryY=1;entryDx=0;entryDy=0;" edge="1" parent="1" source="DXj9ZtCEaBtlAzCnvvc7-9" target="DXj9ZtCEaBtlAzCnvvc7-112">
          <mxGeometry relative="1" as="geometry" />
        </mxCell>
        <mxCell id="DXj9ZtCEaBtlAzCnvvc7-144" value="Post /braintree/payment" style="edgeLabel;html=1;align=center;verticalAlign=middle;resizable=0;points=[];" vertex="1" connectable="0" parent="DXj9ZtCEaBtlAzCnvvc7-121">
          <mxGeometry x="0.6786" y="1" relative="1" as="geometry">
            <mxPoint as="offset" />
          </mxGeometry>
        </mxCell>
        <mxCell id="DXj9ZtCEaBtlAzCnvvc7-122" style="edgeStyle=orthogonalEdgeStyle;rounded=0;orthogonalLoop=1;jettySize=auto;html=1;exitX=0.5;exitY=0;exitDx=0;exitDy=0;entryX=0.5;entryY=1;entryDx=0;entryDy=0;" edge="1" parent="1" source="DXj9ZtCEaBtlAzCnvvc7-9" target="DXj9ZtCEaBtlAzCnvvc7-113">
          <mxGeometry relative="1" as="geometry" />
        </mxCell>
        <mxCell id="DXj9ZtCEaBtlAzCnvvc7-143" value="Get /braintree/token" style="edgeLabel;html=1;align=center;verticalAlign=middle;resizable=0;points=[];" vertex="1" connectable="0" parent="DXj9ZtCEaBtlAzCnvvc7-122">
          <mxGeometry x="0.7077" y="4" relative="1" as="geometry">
            <mxPoint as="offset" />
          </mxGeometry>
        </mxCell>
        <mxCell id="DXj9ZtCEaBtlAzCnvvc7-123" style="edgeStyle=orthogonalEdgeStyle;rounded=0;orthogonalLoop=1;jettySize=auto;html=1;exitX=0;exitY=0;exitDx=0;exitDy=0;entryX=0.5;entryY=1;entryDx=0;entryDy=0;" edge="1" parent="1" source="DXj9ZtCEaBtlAzCnvvc7-9" target="DXj9ZtCEaBtlAzCnvvc7-114">
          <mxGeometry relative="1" as="geometry">
            <Array as="points">
              <mxPoint x="-22.5" y="120" />
              <mxPoint x="-122.5" y="120" />
            </Array>
          </mxGeometry>
        </mxCell>
        <mxCell id="DXj9ZtCEaBtlAzCnvvc7-142" value="Get /getProductsFromCategory/:slug" style="edgeLabel;html=1;align=center;verticalAlign=middle;resizable=0;points=[];" vertex="1" connectable="0" parent="DXj9ZtCEaBtlAzCnvvc7-123">
          <mxGeometry x="0.0625" relative="1" as="geometry">
            <mxPoint x="-49" y="-125" as="offset" />
          </mxGeometry>
        </mxCell>
        <mxCell id="DXj9ZtCEaBtlAzCnvvc7-124" style="edgeStyle=orthogonalEdgeStyle;rounded=0;orthogonalLoop=1;jettySize=auto;html=1;exitX=0;exitY=0.25;exitDx=0;exitDy=0;entryX=1;entryY=0.5;entryDx=0;entryDy=0;" edge="1" parent="1" source="DXj9ZtCEaBtlAzCnvvc7-9" target="DXj9ZtCEaBtlAzCnvvc7-101">
          <mxGeometry relative="1" as="geometry">
            <Array as="points">
              <mxPoint x="-142.5" y="245" />
              <mxPoint x="-142.5" y="35" />
            </Array>
          </mxGeometry>
        </mxCell>
        <mxCell id="DXj9ZtCEaBtlAzCnvvc7-132" value="Get /all-products" style="edgeLabel;html=1;align=center;verticalAlign=middle;resizable=0;points=[];" vertex="1" connectable="0" parent="DXj9ZtCEaBtlAzCnvvc7-124">
          <mxGeometry x="0.85" y="2" relative="1" as="geometry">
            <mxPoint x="25" y="-2" as="offset" />
          </mxGeometry>
        </mxCell>
        <mxCell id="DXj9ZtCEaBtlAzCnvvc7-125" style="edgeStyle=orthogonalEdgeStyle;rounded=0;orthogonalLoop=1;jettySize=auto;html=1;exitX=0;exitY=0.25;exitDx=0;exitDy=0;entryX=1;entryY=0.5;entryDx=0;entryDy=0;" edge="1" parent="1" source="DXj9ZtCEaBtlAzCnvvc7-9" target="DXj9ZtCEaBtlAzCnvvc7-102">
          <mxGeometry relative="1" as="geometry">
            <Array as="points">
              <mxPoint x="-142.5" y="245" />
              <mxPoint x="-142.5" y="95" />
            </Array>
          </mxGeometry>
        </mxCell>
        <mxCell id="DXj9ZtCEaBtlAzCnvvc7-133" value="Get /get-product/:pid" style="edgeLabel;html=1;align=center;verticalAlign=middle;resizable=0;points=[];" vertex="1" connectable="0" parent="DXj9ZtCEaBtlAzCnvvc7-125">
          <mxGeometry x="0.8176" y="1" relative="1" as="geometry">
            <mxPoint x="33" y="-1" as="offset" />
          </mxGeometry>
        </mxCell>
        <mxCell id="DXj9ZtCEaBtlAzCnvvc7-126" style="edgeStyle=orthogonalEdgeStyle;rounded=0;orthogonalLoop=1;jettySize=auto;html=1;exitX=0;exitY=0.25;exitDx=0;exitDy=0;entryX=1;entryY=0.5;entryDx=0;entryDy=0;" edge="1" parent="1" source="DXj9ZtCEaBtlAzCnvvc7-9" target="DXj9ZtCEaBtlAzCnvvc7-103">
          <mxGeometry relative="1" as="geometry">
            <Array as="points">
              <mxPoint x="-142.5" y="245" />
              <mxPoint x="-142.5" y="145" />
            </Array>
          </mxGeometry>
        </mxCell>
        <mxCell id="DXj9ZtCEaBtlAzCnvvc7-134" value="Get /get-photo/:pid" style="edgeLabel;html=1;align=center;verticalAlign=middle;resizable=0;points=[];" vertex="1" connectable="0" parent="DXj9ZtCEaBtlAzCnvvc7-126">
          <mxGeometry x="0.7931" y="-2" relative="1" as="geometry">
            <mxPoint x="33" y="2" as="offset" />
          </mxGeometry>
        </mxCell>
        <mxCell id="DXj9ZtCEaBtlAzCnvvc7-127" style="edgeStyle=orthogonalEdgeStyle;rounded=0;orthogonalLoop=1;jettySize=auto;html=1;exitX=0;exitY=0.25;exitDx=0;exitDy=0;entryX=1;entryY=0.5;entryDx=0;entryDy=0;" edge="1" parent="1" source="DXj9ZtCEaBtlAzCnvvc7-9" target="DXj9ZtCEaBtlAzCnvvc7-104">
          <mxGeometry relative="1" as="geometry">
            <Array as="points">
              <mxPoint x="-142.5" y="245" />
              <mxPoint x="-142.5" y="195" />
            </Array>
          </mxGeometry>
        </mxCell>
        <mxCell id="DXj9ZtCEaBtlAzCnvvc7-135" value="Delete /delete-product/:pid" style="edgeLabel;html=1;align=center;verticalAlign=middle;resizable=0;points=[];" vertex="1" connectable="0" parent="DXj9ZtCEaBtlAzCnvvc7-127">
          <mxGeometry x="0.7" y="3" relative="1" as="geometry">
            <mxPoint x="24" y="-3" as="offset" />
          </mxGeometry>
        </mxCell>
        <mxCell id="DXj9ZtCEaBtlAzCnvvc7-128" style="edgeStyle=orthogonalEdgeStyle;rounded=0;orthogonalLoop=1;jettySize=auto;html=1;exitX=0;exitY=0.25;exitDx=0;exitDy=0;entryX=1;entryY=0.5;entryDx=0;entryDy=0;" edge="1" parent="1" source="DXj9ZtCEaBtlAzCnvvc7-9" target="DXj9ZtCEaBtlAzCnvvc7-106">
          <mxGeometry relative="1" as="geometry">
            <Array as="points">
              <mxPoint x="-82.5" y="245" />
              <mxPoint x="-82.5" y="245" />
            </Array>
          </mxGeometry>
        </mxCell>
        <mxCell id="DXj9ZtCEaBtlAzCnvvc7-136" value="Put /update-product/:pid" style="edgeLabel;html=1;align=center;verticalAlign=middle;resizable=0;points=[];" vertex="1" connectable="0" parent="DXj9ZtCEaBtlAzCnvvc7-128">
          <mxGeometry x="0.7474" y="-2" relative="1" as="geometry">
            <mxPoint x="37" y="2" as="offset" />
          </mxGeometry>
        </mxCell>
        <mxCell id="DXj9ZtCEaBtlAzCnvvc7-129" style="edgeStyle=orthogonalEdgeStyle;rounded=0;orthogonalLoop=1;jettySize=auto;html=1;exitX=0;exitY=0.5;exitDx=0;exitDy=0;" edge="1" parent="1" source="DXj9ZtCEaBtlAzCnvvc7-9" target="DXj9ZtCEaBtlAzCnvvc7-111">
          <mxGeometry relative="1" as="geometry">
            <Array as="points">
              <mxPoint x="-172.5" y="260" />
              <mxPoint x="-172.5" y="295" />
            </Array>
          </mxGeometry>
        </mxCell>
        <mxCell id="DXj9ZtCEaBtlAzCnvvc7-137" value="Post /products-filter/:page" style="edgeLabel;html=1;align=center;verticalAlign=middle;resizable=0;points=[];" vertex="1" connectable="0" parent="DXj9ZtCEaBtlAzCnvvc7-129">
          <mxGeometry x="0.6711" y="-1" relative="1" as="geometry">
            <mxPoint x="31" y="1" as="offset" />
          </mxGeometry>
        </mxCell>
        <mxCell id="DXj9ZtCEaBtlAzCnvvc7-130" style="edgeStyle=orthogonalEdgeStyle;rounded=0;orthogonalLoop=1;jettySize=auto;html=1;exitX=0;exitY=0.75;exitDx=0;exitDy=0;entryX=1;entryY=0.5;entryDx=0;entryDy=0;" edge="1" parent="1" source="DXj9ZtCEaBtlAzCnvvc7-9" target="DXj9ZtCEaBtlAzCnvvc7-107">
          <mxGeometry relative="1" as="geometry">
            <Array as="points">
              <mxPoint x="-132.5" y="275" />
              <mxPoint x="-132.5" y="355" />
            </Array>
          </mxGeometry>
        </mxCell>
        <mxCell id="DXj9ZtCEaBtlAzCnvvc7-138" value="Get /total-product-count" style="edgeLabel;html=1;align=center;verticalAlign=middle;resizable=0;points=[];" vertex="1" connectable="0" parent="DXj9ZtCEaBtlAzCnvvc7-130">
          <mxGeometry x="0.6741" y="-1" relative="1" as="geometry">
            <mxPoint x="25" y="1" as="offset" />
          </mxGeometry>
        </mxCell>
        <mxCell id="DXj9ZtCEaBtlAzCnvvc7-9" value="Product" style="rounded=1;whiteSpace=wrap;html=1;" vertex="1" parent="1">
          <mxGeometry x="-22.5" y="230" width="120" height="60" as="geometry" />
        </mxCell>
        <mxCell id="DXj9ZtCEaBtlAzCnvvc7-95" style="edgeStyle=orthogonalEdgeStyle;rounded=0;orthogonalLoop=1;jettySize=auto;html=1;exitX=0.5;exitY=0;exitDx=0;exitDy=0;entryX=1;entryY=0.5;entryDx=0;entryDy=0;" edge="1" parent="1" source="DXj9ZtCEaBtlAzCnvvc7-10" target="DXj9ZtCEaBtlAzCnvvc7-94">
          <mxGeometry relative="1" as="geometry" />
        </mxCell>
        <mxCell id="DXj9ZtCEaBtlAzCnvvc7-98" value="Get /user/order" style="edgeLabel;html=1;align=center;verticalAlign=middle;resizable=0;points=[];" vertex="1" connectable="0" parent="DXj9ZtCEaBtlAzCnvvc7-95">
          <mxGeometry x="0.29" y="1" relative="1" as="geometry">
            <mxPoint as="offset" />
          </mxGeometry>
        </mxCell>
        <mxCell id="DXj9ZtCEaBtlAzCnvvc7-96" style="edgeStyle=orthogonalEdgeStyle;rounded=0;orthogonalLoop=1;jettySize=auto;html=1;exitX=0;exitY=0.5;exitDx=0;exitDy=0;entryX=1;entryY=0.5;entryDx=0;entryDy=0;" edge="1" parent="1" source="DXj9ZtCEaBtlAzCnvvc7-10" target="DXj9ZtCEaBtlAzCnvvc7-92">
          <mxGeometry relative="1" as="geometry" />
        </mxCell>
        <mxCell id="DXj9ZtCEaBtlAzCnvvc7-99" value="Get /admin/get-all-orders" style="edgeLabel;html=1;align=center;verticalAlign=middle;resizable=0;points=[];" vertex="1" connectable="0" parent="DXj9ZtCEaBtlAzCnvvc7-96">
          <mxGeometry x="0.1167" y="-1" relative="1" as="geometry">
            <mxPoint x="25" y="1" as="offset" />
          </mxGeometry>
        </mxCell>
        <mxCell id="DXj9ZtCEaBtlAzCnvvc7-97" style="edgeStyle=orthogonalEdgeStyle;rounded=0;orthogonalLoop=1;jettySize=auto;html=1;exitX=0.5;exitY=1;exitDx=0;exitDy=0;entryX=1;entryY=0.5;entryDx=0;entryDy=0;" edge="1" parent="1" source="DXj9ZtCEaBtlAzCnvvc7-10" target="DXj9ZtCEaBtlAzCnvvc7-93">
          <mxGeometry relative="1" as="geometry" />
        </mxCell>
        <mxCell id="DXj9ZtCEaBtlAzCnvvc7-100" value="Get /admin/changeOrderStatus" style="edgeLabel;html=1;align=center;verticalAlign=middle;resizable=0;points=[];" vertex="1" connectable="0" parent="DXj9ZtCEaBtlAzCnvvc7-97">
          <mxGeometry x="0.43" y="3" relative="1" as="geometry">
            <mxPoint x="29" y="-3" as="offset" />
          </mxGeometry>
        </mxCell>
        <mxCell id="DXj9ZtCEaBtlAzCnvvc7-10" value="Order" style="rounded=1;whiteSpace=wrap;html=1;" vertex="1" parent="1">
          <mxGeometry x="10" y="605" width="120" height="60" as="geometry" />
        </mxCell>
        <mxCell id="DXj9ZtCEaBtlAzCnvvc7-12" value="" style="endArrow=classic;html=1;rounded=0;entryX=0;entryY=0.5;entryDx=0;entryDy=0;exitX=0.5;exitY=1;exitDx=0;exitDy=0;" edge="1" parent="1" source="DXj9ZtCEaBtlAzCnvvc7-5" target="DXj9ZtCEaBtlAzCnvvc7-7">
          <mxGeometry relative="1" as="geometry">
            <mxPoint x="179.9999999999999" y="250" as="sourcePoint" />
            <mxPoint x="272.4" y="410" as="targetPoint" />
            <Array as="points">
              <mxPoint x="228" y="290" />
            </Array>
          </mxGeometry>
        </mxCell>
        <mxCell id="DXj9ZtCEaBtlAzCnvvc7-13" value="&lt;font style=&quot;font-size: 14px;&quot;&gt;/auth&lt;/font&gt;" style="edgeLabel;resizable=0;html=1;;align=center;verticalAlign=middle;" connectable="0" vertex="1" parent="DXj9ZtCEaBtlAzCnvvc7-12">
          <mxGeometry relative="1" as="geometry">
            <mxPoint x="36" y="-5" as="offset" />
          </mxGeometry>
        </mxCell>
        <mxCell id="DXj9ZtCEaBtlAzCnvvc7-15" value="" style="endArrow=classic;html=1;rounded=0;entryX=0;entryY=0.5;entryDx=0;entryDy=0;exitX=0.5;exitY=1;exitDx=0;exitDy=0;" edge="1" parent="1" source="DXj9ZtCEaBtlAzCnvvc7-5" target="DXj9ZtCEaBtlAzCnvvc7-6">
          <mxGeometry relative="1" as="geometry">
            <mxPoint x="238" y="220" as="sourcePoint" />
            <mxPoint x="330" y="300" as="targetPoint" />
            <Array as="points">
              <mxPoint x="230" y="570" />
            </Array>
          </mxGeometry>
        </mxCell>
        <mxCell id="DXj9ZtCEaBtlAzCnvvc7-16" value="&lt;font style=&quot;font-size: 14px;&quot;&gt;/category&lt;/font&gt;" style="edgeLabel;resizable=0;html=1;;align=center;verticalAlign=middle;" connectable="0" vertex="1" parent="DXj9ZtCEaBtlAzCnvvc7-15">
          <mxGeometry relative="1" as="geometry">
            <mxPoint x="46" y="130" as="offset" />
          </mxGeometry>
        </mxCell>
        <mxCell id="DXj9ZtCEaBtlAzCnvvc7-18" value="" style="endArrow=classic;html=1;rounded=0;entryX=0.5;entryY=0;entryDx=0;entryDy=0;exitX=0.5;exitY=1;exitDx=0;exitDy=0;" edge="1" parent="1" source="DXj9ZtCEaBtlAzCnvvc7-5" target="DXj9ZtCEaBtlAzCnvvc7-8">
          <mxGeometry relative="1" as="geometry">
            <mxPoint x="230" y="210" as="sourcePoint" />
            <mxPoint x="330" y="380" as="targetPoint" />
            <Array as="points">
              <mxPoint x="230" y="450" />
              <mxPoint x="228" y="680" />
            </Array>
          </mxGeometry>
        </mxCell>
        <mxCell id="DXj9ZtCEaBtlAzCnvvc7-19" value="&lt;font style=&quot;font-size: 14px;&quot;&gt;/brand&lt;/font&gt;" style="edgeLabel;resizable=0;html=1;;align=center;verticalAlign=middle;" connectable="0" vertex="1" parent="DXj9ZtCEaBtlAzCnvvc7-18">
          <mxGeometry relative="1" as="geometry">
            <mxPoint x="-2" y="215" as="offset" />
          </mxGeometry>
        </mxCell>
        <mxCell id="DXj9ZtCEaBtlAzCnvvc7-20" value="" style="endArrow=classic;html=1;rounded=0;entryX=1;entryY=0.5;entryDx=0;entryDy=0;exitX=0.5;exitY=1;exitDx=0;exitDy=0;" edge="1" parent="1" source="DXj9ZtCEaBtlAzCnvvc7-5" target="DXj9ZtCEaBtlAzCnvvc7-9">
          <mxGeometry relative="1" as="geometry">
            <mxPoint x="248" y="230" as="sourcePoint" />
            <mxPoint x="340" y="390" as="targetPoint" />
            <Array as="points">
              <mxPoint x="230" y="260" />
            </Array>
          </mxGeometry>
        </mxCell>
        <mxCell id="DXj9ZtCEaBtlAzCnvvc7-21" value="&lt;font style=&quot;font-size: 14px;&quot;&gt;/product&lt;/font&gt;" style="edgeLabel;resizable=0;html=1;;align=center;verticalAlign=middle;" connectable="0" vertex="1" parent="DXj9ZtCEaBtlAzCnvvc7-20">
          <mxGeometry relative="1" as="geometry">
            <mxPoint x="-30" as="offset" />
          </mxGeometry>
        </mxCell>
        <mxCell id="DXj9ZtCEaBtlAzCnvvc7-22" value="" style="endArrow=classic;html=1;rounded=0;entryX=1;entryY=0.5;entryDx=0;entryDy=0;exitX=0.5;exitY=1;exitDx=0;exitDy=0;" edge="1" parent="1" source="DXj9ZtCEaBtlAzCnvvc7-5" target="DXj9ZtCEaBtlAzCnvvc7-10">
          <mxGeometry relative="1" as="geometry">
            <mxPoint x="258" y="240" as="sourcePoint" />
            <mxPoint x="350" y="400" as="targetPoint" />
            <Array as="points">
              <mxPoint x="228" y="630" />
            </Array>
          </mxGeometry>
        </mxCell>
        <mxCell id="DXj9ZtCEaBtlAzCnvvc7-23" value="&lt;font style=&quot;font-size: 14px;&quot;&gt;/order&lt;/font&gt;" style="edgeLabel;resizable=0;html=1;;align=center;verticalAlign=middle;" connectable="0" vertex="1" parent="DXj9ZtCEaBtlAzCnvvc7-22">
          <mxGeometry relative="1" as="geometry">
            <mxPoint x="-46" y="162" as="offset" />
          </mxGeometry>
        </mxCell>
        <mxCell id="DXj9ZtCEaBtlAzCnvvc7-33" value="" style="endArrow=classic;html=1;rounded=0;entryX=0.5;entryY=0;entryDx=0;entryDy=0;exitX=0.5;exitY=1;exitDx=0;exitDy=0;" edge="1" parent="1" source="DXj9ZtCEaBtlAzCnvvc7-1" target="DXj9ZtCEaBtlAzCnvvc7-5">
          <mxGeometry relative="1" as="geometry">
            <mxPoint x="370" y="390" as="sourcePoint" />
            <mxPoint x="470" y="390" as="targetPoint" />
            <Array as="points" />
          </mxGeometry>
        </mxCell>
        <mxCell id="DXj9ZtCEaBtlAzCnvvc7-34" value="&lt;font style=&quot;font-size: 14px;&quot;&gt;http Connection&lt;/font&gt;" style="edgeLabel;resizable=0;html=1;;align=center;verticalAlign=middle;" connectable="0" vertex="1" parent="DXj9ZtCEaBtlAzCnvvc7-33">
          <mxGeometry relative="1" as="geometry">
            <mxPoint y="-110" as="offset" />
          </mxGeometry>
        </mxCell>
        <mxCell id="DXj9ZtCEaBtlAzCnvvc7-35" value="Login" style="rounded=1;whiteSpace=wrap;html=1;" vertex="1" parent="1">
          <mxGeometry x="570" y="170" width="100" height="30" as="geometry" />
        </mxCell>
        <mxCell id="DXj9ZtCEaBtlAzCnvvc7-36" value="Forgot Password" style="rounded=1;whiteSpace=wrap;html=1;" vertex="1" parent="1">
          <mxGeometry x="570" y="220" width="100" height="30" as="geometry" />
        </mxCell>
        <mxCell id="DXj9ZtCEaBtlAzCnvvc7-37" value="User Authentication" style="rounded=1;whiteSpace=wrap;html=1;" vertex="1" parent="1">
          <mxGeometry x="570" y="270" width="100" height="30" as="geometry" />
        </mxCell>
        <mxCell id="DXj9ZtCEaBtlAzCnvvc7-38" value="Admin Authentication" style="rounded=1;whiteSpace=wrap;html=1;" vertex="1" parent="1">
          <mxGeometry x="570" y="320" width="100" height="30" as="geometry" />
        </mxCell>
        <mxCell id="DXj9ZtCEaBtlAzCnvvc7-39" value="Register" style="rounded=1;whiteSpace=wrap;html=1;" vertex="1" parent="1">
          <mxGeometry x="570" y="110" width="100" height="30" as="geometry" />
        </mxCell>
        <mxCell id="DXj9ZtCEaBtlAzCnvvc7-40" value="/Profile" style="rounded=1;whiteSpace=wrap;html=1;" vertex="1" parent="1">
          <mxGeometry x="570" y="370" width="100" height="30" as="geometry" />
        </mxCell>
        <mxCell id="DXj9ZtCEaBtlAzCnvvc7-56" value="Update Brand" style="rounded=1;whiteSpace=wrap;html=1;" vertex="1" parent="1">
          <mxGeometry x="570" y="500" width="100" height="30" as="geometry" />
        </mxCell>
        <mxCell id="DXj9ZtCEaBtlAzCnvvc7-57" value="All Brands" style="rounded=1;whiteSpace=wrap;html=1;" vertex="1" parent="1">
          <mxGeometry x="570" y="550" width="100" height="30" as="geometry" />
        </mxCell>
        <mxCell id="DXj9ZtCEaBtlAzCnvvc7-58" value="Single Brand" style="rounded=1;whiteSpace=wrap;html=1;" vertex="1" parent="1">
          <mxGeometry x="570" y="600" width="100" height="30" as="geometry" />
        </mxCell>
        <mxCell id="DXj9ZtCEaBtlAzCnvvc7-59" value="Delete Brand" style="rounded=1;whiteSpace=wrap;html=1;" vertex="1" parent="1">
          <mxGeometry x="570" y="650" width="100" height="30" as="geometry" />
        </mxCell>
        <mxCell id="DXj9ZtCEaBtlAzCnvvc7-60" value="Create Brand" style="rounded=1;whiteSpace=wrap;html=1;" vertex="1" parent="1">
          <mxGeometry x="570" y="440" width="100" height="30" as="geometry" />
        </mxCell>
        <mxCell id="DXj9ZtCEaBtlAzCnvvc7-72" value="Update Category" style="rounded=1;whiteSpace=wrap;html=1;" vertex="1" parent="1">
          <mxGeometry x="20" y="830" width="100" height="30" as="geometry" />
        </mxCell>
        <mxCell id="DXj9ZtCEaBtlAzCnvvc7-73" value="All Categories" style="rounded=1;whiteSpace=wrap;html=1;" vertex="1" parent="1">
          <mxGeometry x="177.5" y="830" width="100" height="30" as="geometry" />
        </mxCell>
        <mxCell id="DXj9ZtCEaBtlAzCnvvc7-74" value="Single Category" style="rounded=1;whiteSpace=wrap;html=1;" vertex="1" parent="1">
          <mxGeometry x="400" y="830" width="100" height="30" as="geometry" />
        </mxCell>
        <mxCell id="DXj9ZtCEaBtlAzCnvvc7-75" value="Delete Category" style="rounded=1;whiteSpace=wrap;html=1;" vertex="1" parent="1">
          <mxGeometry x="570" y="830" width="100" height="30" as="geometry" />
        </mxCell>
        <mxCell id="DXj9ZtCEaBtlAzCnvvc7-76" value="Create Category" style="rounded=1;whiteSpace=wrap;html=1;" vertex="1" parent="1">
          <mxGeometry x="-110" y="830" width="100" height="30" as="geometry" />
        </mxCell>
        <mxCell id="DXj9ZtCEaBtlAzCnvvc7-92" value="Get All Orders" style="rounded=1;whiteSpace=wrap;html=1;" vertex="1" parent="1">
          <mxGeometry x="-260" y="620" width="100" height="30" as="geometry" />
        </mxCell>
        <mxCell id="DXj9ZtCEaBtlAzCnvvc7-93" value="Change Order Status" style="rounded=1;whiteSpace=wrap;html=1;" vertex="1" parent="1">
          <mxGeometry x="-260" y="670" width="100" height="30" as="geometry" />
        </mxCell>
        <mxCell id="DXj9ZtCEaBtlAzCnvvc7-94" value="Get Orders" style="rounded=1;whiteSpace=wrap;html=1;" vertex="1" parent="1">
          <mxGeometry x="-260" y="570" width="100" height="30" as="geometry" />
        </mxCell>
        <mxCell id="DXj9ZtCEaBtlAzCnvvc7-101" value="All Products" style="rounded=1;whiteSpace=wrap;html=1;" vertex="1" parent="1">
          <mxGeometry x="-382.5" y="20" width="100" height="30" as="geometry" />
        </mxCell>
        <mxCell id="DXj9ZtCEaBtlAzCnvvc7-102" value="Get&amp;nbsp; Product" style="rounded=1;whiteSpace=wrap;html=1;" vertex="1" parent="1">
          <mxGeometry x="-382.5" y="80" width="100" height="30" as="geometry" />
        </mxCell>
        <mxCell id="DXj9ZtCEaBtlAzCnvvc7-103" value="Get Photo" style="rounded=1;whiteSpace=wrap;html=1;" vertex="1" parent="1">
          <mxGeometry x="-382.5" y="130" width="100" height="30" as="geometry" />
        </mxCell>
        <mxCell id="DXj9ZtCEaBtlAzCnvvc7-104" value="Delete Product" style="rounded=1;whiteSpace=wrap;html=1;" vertex="1" parent="1">
          <mxGeometry x="-382.5" y="180" width="100" height="30" as="geometry" />
        </mxCell>
        <mxCell id="DXj9ZtCEaBtlAzCnvvc7-105" value="Create&lt;div&gt;Product&lt;/div&gt;" style="rounded=1;whiteSpace=wrap;html=1;" vertex="1" parent="1">
          <mxGeometry x="-302.5" y="430" width="100" height="30" as="geometry" />
        </mxCell>
        <mxCell id="DXj9ZtCEaBtlAzCnvvc7-106" value="Update Product" style="rounded=1;whiteSpace=wrap;html=1;" vertex="1" parent="1">
          <mxGeometry x="-382.5" y="230" width="100" height="30" as="geometry" />
        </mxCell>
        <mxCell id="DXj9ZtCEaBtlAzCnvvc7-107" value="Total Product Count" style="rounded=1;whiteSpace=wrap;html=1;" vertex="1" parent="1">
          <mxGeometry x="-382.5" y="340" width="100" height="30" as="geometry" />
        </mxCell>
        <mxCell id="DXj9ZtCEaBtlAzCnvvc7-108" value="Get Product List&amp;nbsp;&lt;div&gt;(Page)&lt;/div&gt;" style="rounded=1;whiteSpace=wrap;html=1;" vertex="1" parent="1">
          <mxGeometry x="-192.5" y="470" width="100" height="30" as="geometry" />
        </mxCell>
        <mxCell id="DXj9ZtCEaBtlAzCnvvc7-109" value="Search by Keyword" style="rounded=1;whiteSpace=wrap;html=1;" vertex="1" parent="1">
          <mxGeometry x="-62.5" y="460" width="100" height="30" as="geometry" />
        </mxCell>
        <mxCell id="DXj9ZtCEaBtlAzCnvvc7-110" value="Get Product Recommendation" style="rounded=1;whiteSpace=wrap;html=1;" vertex="1" parent="1">
          <mxGeometry x="77.5" y="460" width="100" height="30" as="geometry" />
        </mxCell>
        <mxCell id="DXj9ZtCEaBtlAzCnvvc7-111" value="Products Filter" style="rounded=1;whiteSpace=wrap;html=1;" vertex="1" parent="1">
          <mxGeometry x="-382.5" y="280" width="100" height="30" as="geometry" />
        </mxCell>
        <mxCell id="DXj9ZtCEaBtlAzCnvvc7-112" value="Payment" style="rounded=1;whiteSpace=wrap;html=1;" vertex="1" parent="1">
          <mxGeometry x="77.5" y="-60" width="100" height="30" as="geometry" />
        </mxCell>
        <mxCell id="DXj9ZtCEaBtlAzCnvvc7-113" value="Get Payment Token" style="rounded=1;whiteSpace=wrap;html=1;" vertex="1" parent="1">
          <mxGeometry x="-52.5" y="-60" width="100" height="30" as="geometry" />
        </mxCell>
        <mxCell id="DXj9ZtCEaBtlAzCnvvc7-114" value="Get Products from Category" style="rounded=1;whiteSpace=wrap;html=1;" vertex="1" parent="1">
          <mxGeometry x="-172.5" y="-60" width="100" height="30" as="geometry" />
        </mxCell>
        <mxCell id="DXj9ZtCEaBtlAzCnvvc7-147" value="DataBase" style="shape=datastore;whiteSpace=wrap;html=1;" vertex="1" parent="1">
          <mxGeometry x="385" y="-60" width="130" height="135" as="geometry" />
        </mxCell>
        <mxCell id="DXj9ZtCEaBtlAzCnvvc7-150" value="&lt;font style=&quot;font-size: 18px;&quot;&gt;SoleSphere Server&lt;br&gt;(Monolithic Architecture)&lt;/font&gt;" style="text;html=1;align=center;verticalAlign=middle;whiteSpace=wrap;rounded=0;" vertex="1" parent="1">
          <mxGeometry x="112.5" y="920" width="230" height="30" as="geometry" />
        </mxCell>
      </root>
    </mxGraphModel>
  </diagram>
</mxfile>
